<?xml version="1.0" encoding="UTF-8" standalone="no"?>
<svg
   version="1.1"
   width="1000"
   height="1037"
   viewBox="0 0 1000 1037"
   id="svg84"
   sodipodi:docname="logo-no-background.svg"
   inkscape:export-filename="../../../half_logo.svg"
   inkscape:export-xdpi="96"
   inkscape:export-ydpi="96"
   xml:space="preserve"
   xmlns:inkscape="http://www.inkscape.org/namespaces/inkscape"
   xmlns:sodipodi="http://sodipodi.sourceforge.net/DTD/sodipodi-0.dtd"
   xmlns="http://www.w3.org/2000/svg"
   xmlns:svg="http://www.w3.org/2000/svg"><defs
     id="defs88" /><sodipodi:namedview
     id="namedview86"
     pagecolor="#ffffff"
     bordercolor="#000000"
     borderopacity="0.25"
     inkscape:showpageshadow="2"
     inkscape:pageopacity="0.0"
     inkscape:pagecheckerboard="0"
     inkscape:deskcolor="#d1d1d1"
     showgrid="false" /><g
     id="g865"
     transform="matrix(1.3156414,0,0,1.3156414,-131.90437,-3.1224188)"><path
       d="m 193.33911,547.15724 q -6.6186,0 -11.1301,-4.59253 -4.5385,-4.59253 -4.5385,-11.75146 v 0 q 0,-9.4552 9.05,-14.45295 v 0 q -5.6731,-3.51193 -5.6731,-10.67087 v 0 q 0,-4.45745 2.9176,-7.64521 2.8906,-3.16074 7.4831,-4.78163 v 0 q -8.6448,-6.34849 -8.6448,-19.18055 v 0 q 0,-11.21116 6.8348,-17.69473 6.8077,-6.48357 19.3697,-6.48357 v 0 q 6.7537,0 11.8865,2.02612 v 0 q 3.647,-2.56641 5.2679,-6.15939 1.6209,-3.56596 1.6209,-6.13237 v 0 h 13.3723 q 0,14.58802 -11.4813,18.09995 v 0 q 5.6731,6.3485 5.6731,16.34399 v 0 q 0,11.21117 -6.8077,17.69474 -6.8348,6.48356 -19.5317,6.48356 v 0 h -6.7538 q -2.1612,0 -3.5119,1.21567 -1.3507,1.21567 -1.3507,3.10671 v 0 q 0,1.75596 1.2156,2.97163 1.2157,1.21567 2.9717,1.21567 v 0 h 24.5835 q 6.8888,0 11.5623,5.05178 4.6466,5.07879 4.6466,13.4534 v 0 q 0,6.48357 -3.0257,11.48132 -3.0526,4.99774 -8.3205,7.69923 -5.2679,2.70149 -11.6164,2.70149 v 0 z m 15.6687,-60.91851 q 4.9977,0 7.5641,-3.18775 2.5664,-3.16074 2.5664,-8.96894 v 0 q 0,-5.80819 -2.5664,-8.99595 -2.5664,-3.16073 -7.5641,-3.16073 v 0 q -4.8627,0 -7.4291,3.16073 -2.5664,3.18776 -2.5664,8.99595 v 0 q 0,5.8082 2.5664,8.96894 2.5664,3.18775 7.4291,3.18775 z m -8.5097,48.62675 h 18.235 q 3.1067,0 5.2139,-1.81 2.0801,-1.83701 2.0801,-4.80864 v 0 q 0,-2.97164 -1.891,-4.72761 -1.8911,-1.75596 -4.7276,-1.75596 v 0 h -18.9104 q -2.7015,0 -4.5926,1.89104 -1.891,1.89104 -1.891,4.59253 v 0 q 0,2.97163 1.837,4.80864 1.81,1.81 4.6466,1.81 z m 74.6961,-10.67087 q -13.9127,0 -20.8825,-9.13103 -6.9428,-9.104 -6.9428,-28.0144 v 0 q 0,-37.14544 27.285,-37.14544 v 0 q 12.9671,0 19.3156,9.04998 6.3485,9.04998 6.3485,28.09546 v 0 4.05222 h -36.0649 q 0.1351,9.9955 2.6205,14.91221 2.5124,4.94372 8.3206,4.94372 v 0 q 4.1873,0 6.6186,-3.59298 2.4313,-3.56596 2.4313,-9.91445 v 0 h 16.0739 q 0,13.23728 -6.8888,19.99099 -6.8888,6.75372 -18.235,6.75372 z m -10.806,-44.84467 h 18.9104 q 0,-16.20891 -8.6447,-16.20891 v 0 q -4.9978,0 -7.4291,4.10625 -2.4314,4.13328 -2.8366,12.10266 z m 74.2639,44.84467 q -14.3179,0 -21.3418,-9.04998 -7.0238,-9.04998 -7.0238,-28.09545 v 0 q 0,-19.04548 7.0238,-28.09546 7.0239,-9.04998 21.3418,-9.04998 v 0 q 14.3178,0 21.3687,9.04998 6.9969,9.04998 6.9969,28.09546 v 0 q 0,19.04547 -6.9969,28.09545 -7.0509,9.04998 -21.3687,9.04998 z m 0,-13.64251 q 6.0783,0 8.7798,-5.21387 2.7015,-5.18685 2.7015,-15.72264 v 0 -5.13283 q 0,-10.53579 -2.7015,-15.74966 -2.7015,-5.18685 -8.7798,-5.18685 v 0 q -6.0784,0 -8.7799,5.18685 -2.7015,5.21387 -2.7015,15.74966 v 0 5.13283 q 0,10.53579 2.7015,15.72264 2.7015,5.21387 8.7799,5.21387 z m 58.8924,13.64251 q -8.915,0 -12.8321,-5.48402 -3.9172,-5.457 -3.9172,-13.56146 v 0 -39.98199 h -7.1589 v -13.6425 h 7.1589 l 2.4314,-19.991 h 13.7776 v 19.991 h 10.2656 v 13.6425 h -10.2656 v 39.57677 q 0,2.83656 1.4858,4.32238 1.4858,1.48581 4.1873,1.48581 v 0 h 4.5925 v 12.02161 q -1.756,0.67538 -4.5925,1.16164 -2.8366,0.45926 -5.1328,0.45926 z m 43.764,0 q -13.9126,0 -20.8554,-9.13103 -6.9699,-9.104 -6.9699,-28.0144 v 0 q 0,-37.14544 27.285,-37.14544 v 0 q 12.9672,0 19.3157,9.04998 6.3484,9.04998 6.3484,28.09546 v 0 4.05222 h -36.0648 q 0.1351,9.9955 2.6475,14.91221 2.4853,4.94372 8.2935,4.94372 v 0 q 4.1873,0 6.6187,-3.59298 2.4313,-3.56596 2.4313,-9.91445 v 0 h 16.0738 q 0,13.23728 -6.8887,19.99099 -6.8888,6.75372 -18.2351,6.75372 z m -10.8059,-44.84467 h 18.9104 q 0,-16.20891 -8.6448,-16.20891 v 0 q -4.9977,0 -7.4291,4.10625 -2.4313,4.13328 -2.8365,12.10266 z m 72.805,44.84467 q -13.9126,0 -20.3962,-8.99595 -6.4836,-8.96893 -6.4836,-28.14948 v 0 q 0,-19.04548 6.5376,-28.09546 6.5646,-9.04998 19.8019,-9.04998 v 0 q 11.7515,0 18.2891,6.94282 6.5646,6.96984 6.5646,21.42279 v 0 h -16.6141 q 0,-14.7231 -8.2396,-14.7231 v 0 q -4.9977,0 -7.24,5.18685 -2.2152,5.21387 -2.2152,15.74966 v 0 5.13283 q 0,10.53579 2.3503,15.72264 2.3773,5.21387 7.6452,5.21387 v 0 q 4.3224,0 6.2675,-3.647 1.9721,-3.64701 1.9721,-11.0761 v 0 h 16.0738 q 0,14.45295 -6.3485,21.39577 -6.3485,6.96984 -17.9649,6.96984 z m 36.6052,-1.6209 V 424.915 h 16.2089 v 34.1738 h 0.5403 q 2.7015,-3.91716 7.0238,-6.56461 4.3224,-2.62045 10.1306,-2.62045 v 0 q 8.7798,0 13.8316,5.45701 5.0788,5.48401 5.0788,17.37055 v 0 49.84241 h -16.2089 v -45.38496 q 0,-6.61864 -2.3773,-9.59027 -2.3503,-2.97164 -6.9428,-2.97164 v 0 q -4.7276,0 -7.9154,4.10626 -3.1607,4.13327 -3.1607,10.07654 v 0 43.76407 z m 94.66,0 V 501.6372 h -33.3633 v -12.96713 q 7.0238,-12.29176 13.0482,-28.23053 5.9973,-15.93877 10.3196,-32.14768 v 0 h 16.2089 q -2.2962,11.07609 -7.2129,23.28681 -4.9437,12.23773 -10.0766,22.17919 -5.1328,9.91446 -8.2395,14.23684 v 0 h 19.3156 v -20.80145 q 2.5664,-5.13282 5.1328,-12.29176 2.5665,-7.15893 3.9172,-12.83206 v 0 h 7.1589 v 45.92527 h 9.4552 v 13.6425 h -9.4552 v 20.93651 z m 46.8708,1.6209 q -6.6186,0 -12.2107,-4.51149 -5.6191,-4.53849 -5.6191,-15.47951 v 0 q 0,-13.50743 9.1851,-19.18055 9.185,-5.67312 26.0693,-5.67312 v 0 -7.42909 q 0,-4.1873 -1.5399,-6.48356 -1.5668,-2.29626 -5.8892,-2.29626 v 0 q -4.4574,0 -6.4836,2.21521 -2.0261,2.24224 -2.0261,5.21387 v 0 2.02612 h -15.8037 q -0.135,-0.81045 -0.135,-2.97164 v 0 q 0,-8.9149 6.5646,-14.31787 6.5376,-5.40298 17.4786,-5.40298 v 0 q 12.15672,0 18.18102,5.40298 5.9973,5.40297 5.9973,15.53354 v 0 34.98424 q 0,2.43134 1.0806,3.56596 1.0806,1.16164 2.7015,1.16164 v 0 h 3.2417 v 11.48132 q -4.0522,2.16119 -9.5902,2.16119 v 0 q -4.7276,0 -8.0234,-2.51239 -3.32292,-2.48536 -4.53852,-6.80774 v 0 h -0.6754 q -3.3769,4.7276 -7.3481,7.02386 -3.9982,2.29627 -10.6168,2.29627 z m 6.7537,-13.50743 q 5.403,0 8.0504,-4.32238 2.6205,-4.32238 2.6205,-11.21117 v 0 -4.05223 q -8.2395,0 -13.4264,2.62045 -5.2139,2.64745 -5.2139,8.99594 v 0 q 0,3.78208 1.9721,5.86223 1.9451,2.10716 5.9973,2.10716 z m 42.41332,11.88653 V 424.915 h 16.209 v 97.65871 z m 30.797,0 V 424.915 h 16.2089 v 97.65871 z"
       opacity="1"
       fill="#000000"
       class="wordmark-text-0"
       data-fill-palette-color="primary"
       id="text-0"
       style="stroke-width:2.70149" /><g
       id="g531"
       inkscape:label="Icon"
       transform="matrix(1.4351544,0,0,1.4351544,-120.28722,-243.01157)"><polygon
         points="35.25,11.086 20.75,25.586 13.25,18.086 3.836,27.5 5.25,28.914 13.25,20.914 20.75,28.414 35.25,13.914 42.75,21.414 44.164,20 "
         fill="#d2d6dc"
         data-fill-palette-color="accent"
         id="polygon34"
         transform="matrix(5.8323126,0,0,5.8323126,276.28242,236.23866)" /><polygon
         points="20.75,35.414 35.25,20.914 42.75,28.414 44.164,27 35.25,18.086 20.75,32.586 13.25,25.086 3.836,34.5 5.25,35.914 13.25,27.914 "
         fill="#d2d6dc"
         data-fill-palette-color="accent"
         id="polygon36"
         transform="matrix(5.8323126,0,0,5.8323126,276.28242,236.23866)" /><rect
         x="25.576563"
         y="644.22919"
         width="41.562866"
         height="11.663401"
         transform="rotate(-45)"
         fill="#d2d6dc"
         data-fill-palette-color="accent"
         id="rect38"
         style="stroke-width:5.83231" /><rect
         x="4.9562173"
         y="623.60889"
         width="66.307274"
         height="11.663401"
         transform="rotate(-45)"
         fill="#d2d6dc"
         data-fill-palette-color="accent"
         id="rect40"
         style="stroke-width:5.83231" /><rect
         x="-15.664128"
         y="602.98859"
         width="91.051674"
         height="11.663401"
         transform="rotate(-45)"
         fill="#d2d6dc"
         data-fill-palette-color="accent"
         id="rect42"
         style="stroke-width:5.83231" /><rect
         x="-65.152855"
         y="561.74786"
         width="16.818464"
         height="11.663401"
         transform="rotate(-45)"
         fill="#d2d6dc"
         data-fill-palette-color="accent"
         id="rect44"
         style="stroke-width:5.83231" /><rect
         x="-85.773293"
         y="541.1275"
         width="41.562866"
         height="11.663401"
         transform="rotate(-45)"
         fill="#d2d6dc"
         data-fill-palette-color="accent"
         id="rect46"
         style="stroke-width:5.83231" /></g><g
       id="g643"
       transform="matrix(1.2078079,0,0,1.2078079,759.60467,747.89357)"><path
         d="m -96.998358,-534.4957 -11.209442,-1.74862 10.391598,6.10253 c 4.243539,3.32229 4.628287,-5.43929 0.817844,-4.35391 m -2.29068,9.30493 c -4.951022,-1.47284 -9.903442,-2.94439 -12.894742,-6.2115 -4.18837,-4.57451 -9.90345,-2.94437 -14.36491,-1.26036 9.3601,1.03848 25.13581,13.02152 27.259652,7.47186 m 2.749928,506.775118 c -11.10734,10.169701 -20.36534,21.0495633 -34.52055,29.205659 -35.33142,19.13539 -72.6682,26.895911 -107.55013,21.596131 L -351.354,1.0821528 c -18.71053,-16.5009688 -41.17776,-33.1674868 -60.86473,-55.9820618 -4.57452,4.188358 2.06183,10.124053 -1.96795,16.217041 -6.73846,-17.854018 -19.08022,-36.583642 -35.12358,-56.728339 12.83957,7.463715 23.93051,26.13686 31.05371,35.2293 -2.00662,-11.376262 5.39366,-8.540844 8.38498,-5.273739 4.13187,5.825327 6.14804,2.780229 9.90343,2.944381 13.17054,-0.04693 24.3248,2.953919 39.72131,9.275658 4.5098,11.485232 15.22283,24.498483 31.6605,21.460239 5.06137,-1.031611 11.97349,-1.354341 18.72007,2.079599 9.19456,4.795126 21.54597,9.100693 30.40967,21.4037737 2.33763,3.8656317 3.22018,-16.1618597 13.28905,-16.9714517 41.63548,-5.690458 85.66506,-8.766102 131.93012,-19.894435 16.33554,-14.956574 33.48067,-19.844271 45.942348,-18.040472 11.209432,1.74863 15.066931,13.831106 7.823833,21.664463 -4.57451,4.188355 -8.604281,10.281351 -14.919183,11.256379 1.739102,3.211927 2.117012,8.871829 -1.148688,11.86186 m 78.447864,-44.196941 -1.905922,0.543337 c -7.731254,4.675222 -19.373787,-1.481086 -23.568988,8.36589 -4.188356,-4.57452 -9.029125,-8.549108 -10.713031,-13.013255 -2.825889,-7.021092 3.056025,-12.406477 7.629131,-16.593544 46.17120283,-37.469445 54.9035299,-79.096675 67.334644,-119.306265 2.99956,-11.15567 7.848466,-21.60116 8.346269,-32.86706 4.166054,-51.86166 12.741077,-104.155 -24.3421959,-159.08907 l -43.1762751,-58.96385 c -4.730401,-6.47904 -3.580295,-18.34218 -11.468842,-24.33305 l -33.887735,-27.8303 c 8.762868,0.38614 5.990879,-7.88856 2.290669,-9.30494 -2.447974,-1.36118 -11.044003,-5.5026 -9.580713,3.96775 -14.200735,-5.01573 -36.778335,-19.17781 -51.741735,-21.09187 -46.14659,-5.79618 -96.43329,-2.99493 -141.49447,-4.98067 -4.68348,6.69151 -9.25798,10.87988 -6.97416,15.99644 -5.54952,-2.12654 -5.21995,-9.63591 -2.55138,-13.28091 -16.43764,3.03823 -33.58279,7.92595 -50.46038,20.97799 -21.45338,17.23901 -43.39366,31.32126 -65.22355,42.89908 -6.75482,10.98884 -14.70541,20.67164 -23.90821,30.29929 -3.26711,2.99133 -0.44123,10.0124 -3.165,14.90965 l 5.32893,7.13273 c -9.30491,-2.29067 -1.47282,4.95102 4.73041,6.47904 -8.16436,0.26754 -12.46166,-1.80382 -16.81417,-2.62294 1.79428,1.95969 3.14862,13.93321 -4.62969,5.44057 l 6.4709,9.68967 c -0.76266,3.10169 -9.19455,-4.79512 -5.77027,2.88235 3.4244,7.67481 -4.68347,6.69152 -6.81001,12.24106 -1.08538,-3.81044 -6.52598,-8.44014 -8.10775,-0.98597 l -1.03986,9.36139 c -10.44678,-4.85031 -12.68228,3.20238 -14.09866,6.90259 -11.99941,44.61856 -21.00753,92.50423 -28.70823,139.19284 l -7.1232,-9.09245 6.30535,13.44636 c -6.25843,-0.2758 -6.47902,4.73041 -5.99217,7.88714 2.06183,10.12405 2.81764,21.44386 -0.29358,35.10256 -15.26976,-37.66903 -23.19571,-71.25182 -24.26472,-103.90512 l -0.64545,-13.82425 c -4.18836,-4.57451 -8.26505,-11.65207 -3.63546,-17.08996 2.01488,-3.04649 9.03865,-5.87227 9.36822,-13.38162 -0.43309,-4.40769 -11.75418,-3.65327 -2.93612,-4.51933 7.56583,-0.92125 9.14763,-8.37542 13.1788,-14.4697 2.72377,-4.89724 -7.399,-2.83402 -11.0992,-4.25039 -3.7002,-1.41637 -7.39898,-2.83401 -9.7393,-6.69976 l 14.36759,1.26047 c 4.30557,-12.35141 1.75688,-25.63221 2.96217,-38.74756 0.87431,-5.60474 -4.62144,-8.98221 -8.20999,-12.90161 4.57451,-4.18835 10.99837,-7.66653 11.21769,-12.67414 -0.43309,-4.4077 -4.67524,-7.73125 -8.26507,-11.65206 7.13274,-5.32893 16.76039,3.87387 20.84523,-3.46866 4.68348,-6.6915 10.62046,-13.32645 12.85607,-21.38183 -11.10048,-4.25179 3.5429,-9.24973 1.03975,-9.3587 15.18542,-3.09342 27.8677,-6.29581 34.73289,-19.78909 28.79722,-13.15276 53.24877,-41.54615 71.11104,-62.70735 2.99131,3.2671 5.32892,7.13274 7.23484,6.5894 -1.68389,-4.46415 3.43254,-6.7453 2.77882,-6.14677 20.19165,-2.87283 37.39325,-9.01135 57.04154,-13.79009 10.56399,-12.07563 27.05812,-16.36469 33.31654,-16.08889 16.92454,0.1185 23.19249,-14.02708 33.48069,-19.84428 22.4836,-12.17633 46.36716,0.78999 60.29224,12.06146 7.29005,5.33718 14.90965,3.16499 16.27213,0.71841 33.62019,19.66596 69.4221,32.53019 103.209106,48.44088 8.596041,4.14141 13.92497,11.27417 20.506118,18.46208 -4.464142,1.68391 -7.132736,5.32892 -2.291959,9.30352 23.009256,18.57103 45.806048,27.72818 68.659429,35.63183 15.766165,26.40442 39.044378,53.13852 46.537237,82.31364 7.004702,26.01696 -1.607827,50.72108 0.390678,76.51743 0.864782,8.81664 7.445931,16.00456 7.712181,24.16751 -1.103176,25.03368 -1.607829,50.72109 -5.21405,75.64313 -1.74862,11.20943 -14.374427,13.16099 -22.381484,24.09466 7.501108,14.75233 4.005138,37.17263 -11.4009,45.27224 -6.423857,3.47819 -4.315104,26.77279 -6.385173,31.07151 -3.432539,6.74529 -7.398995,-2.83401 -11.5873508,-7.40854 -3.440787,21.16807 -15.6444359,41.949973 -25.9408882,62.189945"
         fill="#000000"
         fill-rule="nonzero"
         stroke="none"
         stroke-width="1.90196"
         stroke-linecap="butt"
         stroke-linejoin="miter"
         stroke-miterlimit="10"
         stroke-dasharray="none"
         stroke-dashoffset="0"
         font-family="none"
         font-weight="none"
         font-size="none"
         text-anchor="none"
         style="mix-blend-mode:normal"
         data-fill-palette-color="tertiary"
         id="path641" /></g></g></svg>
