<?xml version="1.0" encoding="UTF-8" standalone="no"?>
<svg
   version="1.1"
   width="1000"
   height="676"
   viewBox="0 0 1000 676"
   id="svg84"
   sodipodi:docname="logo-no-background.svg"
   xmlns:inkscape="http://www.inkscape.org/namespaces/inkscape"
   xmlns:sodipodi="http://sodipodi.sourceforge.net/DTD/sodipodi-0.dtd"
   xmlns="http://www.w3.org/2000/svg"
   xmlns:svg="http://www.w3.org/2000/svg">
  <defs
     id="defs88" />
  <sodipodi:namedview
     id="namedview86"
     pagecolor="#ffffff"
     bordercolor="#000000"
     borderopacity="0.25"
     inkscape:showpageshadow="2"
     inkscape:pageopacity="0.0"
     inkscape:pagecheckerboard="0"
     inkscape:deskcolor="#d1d1d1"
     showgrid="false" />
  <g
     id="g531"
     inkscape:label="Icon"
     transform="matrix(4.1865395,0,0,4.1865395,-1244.2819,-1236.3001)">
    <polygon
       points="3.836,27.5 5.25,28.914 13.25,20.914 20.75,28.414 35.25,13.914 42.75,21.414 44.164,20 35.25,11.086 20.75,25.586 13.25,18.086 "
       fill="#d2d6dc"
       data-fill-palette-color="accent"
       id="polygon34"
       transform="matrix(5.8323126,0,0,5.8323126,276.28242,236.23866)" />
    <polygon
       points="44.164,27 35.25,18.086 20.75,32.586 13.25,25.086 3.836,34.5 5.25,35.914 13.25,27.914 20.75,35.414 35.25,20.914 42.75,28.414 "
       fill="#d2d6dc"
       data-fill-palette-color="accent"
       id="polygon36"
       transform="matrix(5.8323126,0,0,5.8323126,276.28242,236.23866)" />
    <rect
       x="25.576563"
       y="644.22919"
       width="41.562866"
       height="11.663401"
       transform="rotate(-45)"
       fill="#d2d6dc"
       data-fill-palette-color="accent"
       id="rect38"
       style="stroke-width:5.83231" />
    <rect
       x="4.9562173"
       y="623.60889"
       width="66.307274"
       height="11.663401"
       transform="rotate(-45)"
       fill="#d2d6dc"
       data-fill-palette-color="accent"
       id="rect40"
       style="stroke-width:5.83231" />
    <rect
       x="-15.664128"
       y="602.98859"
       width="91.051674"
       height="11.663401"
       transform="rotate(-45)"
       fill="#d2d6dc"
       data-fill-palette-color="accent"
       id="rect42"
       style="stroke-width:5.83231" />
    <rect
       x="-65.152855"
       y="561.74786"
       width="16.818464"
       height="11.663401"
       transform="rotate(-45)"
       fill="#d2d6dc"
       data-fill-palette-color="accent"
       id="rect44"
       style="stroke-width:5.83231" />
    <rect
       x="-85.773293"
       y="541.1275"
       width="41.562866"
       height="11.663401"
       transform="rotate(-45)"
       fill="#d2d6dc"
       data-fill-palette-color="accent"
       id="rect46"
       style="stroke-width:5.83231" />
  </g>
  <style>
    @media (prefers-color-scheme: dark) {
      fill: "#fff"
    },

    @media (prefers-color-scheme: light) {
      fill: "#000"
    }
  </style>
</svg>
