<?xml version="1.0" encoding="UTF-8" standalone="no"?>
<svg
   version="1.1"
   width="131.53989"
   height="131.5948"
   viewBox="0 0 131.53989 131.5948"
   id="svg41"
   sodipodi:docname="logo-no-background.svg"
   xmlns:inkscape="http://www.inkscape.org/namespaces/inkscape"
   xmlns:sodipodi="http://sodipodi.sourceforge.net/DTD/sodipodi-0.dtd"
   xmlns="http://www.w3.org/2000/svg"
   xmlns:svg="http://www.w3.org/2000/svg">
  <defs
     id="defs45" />
  <sodipodi:namedview
     id="namedview43"
     pagecolor="#ffffff"
     bordercolor="#000000"
     borderopacity="0.25"
     inkscape:showpageshadow="2"
     inkscape:pageopacity="0.0"
     inkscape:pagecheckerboard="0"
     inkscape:deskcolor="#d1d1d1"
     showgrid="false" />
  <path
     fill="#374151"
     d="m 65.773573,4.143692e-5 c -9.975735,0 -19.426042,2.23381686308 -27.896733,6.21015866308 0,-0.032654 0.02078,-0.060859 0.02376,-0.094989 -0.854937,0.3977825 -1.700968,0.8133764 -2.539577,1.2482663 0.04304,0.013367 0.09352,0.017816 0.139522,0.028205 -0.154363,0.081638 -0.31318,0.1573331 -0.46606,0.2404515 -0.01488,-0.025228 -0.03562,-0.04008 -0.04749,-0.065308 -0.485354,0.2552939 -0.969223,0.5091033 -1.445671,0.7762712 0.04749,0.00896 0.09054,0.022264 0.136544,0.031169 -0.507618,0.2834955 -1.012268,0.5714425 -1.510981,0.8682948 -0.02672,-0.02078 -0.05343,-0.03265 -0.07866,-0.05492 0.283494,-0.1662386 0.562536,-0.3384127 0.84603,-0.5001972 -0.286463,0.1662374 -0.577378,0.330991 -0.862358,0.5001972 0.0015,0.0015 0,0.0031 0,0.0044 -0.118743,0.07125 -0.238965,0.142483 -0.357707,0.213734 0.05492,-0.0059 0.0846,0.01488 0.132094,0.01929 -0.256778,0.154364 -0.506134,0.317633 -0.759942,0.474965 0.01782,-0.05195 0.0282,-0.09797 0.04749,-0.151399 0,0 -0.0015,0 0,0.0015 0,-0.0015 0.0015,-0.0031 0.0015,-0.0044 -0.04601,0.02968 -0.09351,0.06086 -0.143971,0.09054 0.0282,-0.01782 0.05492,-0.03265 0.0846,-0.04898 -0.100926,0.06382 -0.204827,0.127643 -0.307242,0.19147 0.03117,-0.02078 0.06086,-0.04008 0.09203,-0.05937 -0.287948,0.1781121 -0.578862,0.3577081 -0.86384,0.5417571 0.189985,-0.121705 0.382939,-0.238966 0.574409,-0.356224 -0.19147,0.121705 -0.379971,0.246389 -0.571441,0.371066 0,0.03562 0.01489,0.07866 0.01489,0.115767 -0.01782,0.01185 -0.03562,0.02376 -0.05492,0.03562 -0.01782,-0.02821 -0.02968,-0.06086 -0.05194,-0.08609 0.03117,-0.02078 0.06086,-0.04156 0.09203,-0.06234 0,-0.0059 0,-0.01185 0,-0.01633 -0.03415,0.02226 -0.06976,0.04601 -0.105378,0.06976 0,0.0015 0,0.0074 0,0.01185 -1.809318,1.172568 -3.560748,2.425285 -5.242419,3.767061 0.01489,0.0386 0.03562,0.07421 0.05047,0.109828 C 9.6506825,26.479261 -7.5273132e-8,45.005838 -7.5273132e-8,65.797401 -7.5273132e-8,102.13514 29.446306,131.5948 65.769201,131.5948 c 36.322899,0 65.770689,-29.45966 65.770689,-65.797399 C 131.53989,29.458178 102.0921,2.6920489e-8 65.769201,2.6920489e-8 Z M 112.99096,21.946362 c 0.0668,0.111316 0.14546,0.210765 0.20632,0.325053 -1.71878,0.501682 -1.57481,-0.854936 -3.03829,-0.605579 0.61448,1.061247 1.05234,3.253504 2.42974,1.82119 0.1217,0.810408 0.83267,0.258262 1.47832,-0.347317 9.3286,10.562019 15.25675,24.197948 16.05083,39.202366 -0.78814,0 -1.5748,0 -2.35701,0 3.8294,5.953384 -4.33999,8.519676 -7.89035,10.928632 1.08203,2.512859 3.47318,-0.768846 4.85503,0.605577 -0.59667,6.085485 -4.89659,8.455854 -7.89035,12.144243 0.1514,4.614578 0.32209,5.855423 0,10.320085 -6.17156,4.215318 -6.57231,17.217458 -16.39072,15.782178 -1.626745,-4.44388 -1.690575,-10.45366 -3.643863,-14.569531 4.044613,-5.824247 -1.646051,-9.720441 -1.214125,-16.996302 -0.81486,-1.006327 -3.185229,-0.452697 -3.03532,-2.429742 -3.786358,1.307638 -6.508499,0.773302 -10.320085,1.214132 -2.734016,-1.515436 -3.829401,-4.669496 -6.070639,-6.676217 2.046801,-5.882136 -1.289823,-12.117528 5.465062,-14.571016 -0.325053,-7.220942 11.161658,-8.365309 15.782169,-6.676218 0,0.808923 0,1.617848 0,2.426772 2.382241,0.454185 3.513251,2.156634 5.465061,3.035318 -0.10093,-1.519886 0.93657,-1.901341 1.82416,-2.429739 1.85236,1.177021 1.39372,2.846817 4.24945,1.82416 1.06718,0.347317 3.5652,-0.734711 3.64089,0.607065 0.90095,-0.515041 0.87868,-1.954776 1.21413,-3.036804 -0.5566,-2.072032 -3.73738,-1.524339 -5.46803,-2.426772 -0.8297,-0.774785 -0.8297,-2.867596 0,-3.643866 -3.86502,-0.28201 -0.62338,2.93142 -3.03235,3.643866 -0.4052,0 -0.80892,0 -1.21412,0 0.52246,-1.938447 -0.95438,-1.877593 -1.21413,-3.035318 -1.80635,-0.14991 -2.30506,4.112894 -4.24648,1.821191 4.31921,-0.710962 -2.446066,-6.112198 -3.03532,-3.642382 -0.103902,-0.90837 0.216702,-2.239754 -0.608547,-2.428255 -2.15663,0.672371 -3.554811,2.110622 -5.465056,3.035318 0,0.808924 0,1.619332 0,2.428255 -0.535821,0.271621 -1.083509,0.534336 -1.211161,1.212643 -1.824159,0 -3.643868,0 -5.468026,0 -0.02971,-0.774785 -0.773302,-0.840093 -0.605577,-1.824159 0.893527,-1.332868 -0.06976,-4.522552 1.824158,-4.855026 1.74549,-0.846031 3.084297,1.654955 3.640897,0 0.206312,0 0.402235,0 0.608548,0 0.270134,-2.290218 -1.200765,-2.849785 -1.824159,-4.247962 0.06676,-1.145852 2.009692,-0.421531 1.824159,-1.822676 5.174141,-0.286462 5.325542,-5.601611 8.500382,-7.890345 -0.510594,0.705025 -0.802993,1.626754 -0.605585,3.033836 2.235305,0.558083 1.101326,-3.201557 0.605585,-3.642382 -1.40857,-0.192956 -2.330296,0.09648 -3.03532,0.608546 -0.843065,-0.777754 -0.371067,-2.866113 -1.214132,-3.64535 3.838305,-3.444976 4.988608,-9.580921 11.534214,-10.3186 1.95329,0.479418 3.71363,1.151789 5.22461,2.076485 1.27052,1.168115 2.49505,2.394116 3.67503,3.664647 z m -27.123431,7.005723 c 3.162972,0.681277 2.287252,5.405687 4.858,6.677701 0,0.402235 0,0.808923 0,1.214128 -1.460518,-0.247873 -1.319513,1.110229 -3.03532,0.608548 -1.14734,-0.136559 -1.338807,0.681277 -2.426772,0.605579 2.456455,-3.229757 -0.700569,-5.899946 0.604092,-9.105956 z m -0.602607,7.283281 c -1.015239,0 -2.023052,0 -3.03829,0 -0.240445,-2.263501 0.486844,-3.562233 2.429742,-3.642382 0.700576,0.718383 0.687216,2.147729 0.608548,3.642382 z M 75.550415,23.488511 c -0.535814,-1.282404 -1.849393,-1.794475 -1.824159,-3.642383 2.429743,0.59519 3.646839,0.59519 6.073611,0 0.115763,0.491292 0.611511,0.605579 0.605577,1.212643 -0.08313,2.345137 -2.370369,2.487626 -4.855029,2.42974 z m -3.643861,3.642382 c -0.930637,2.508406 -3.891745,2.986338 -6.069158,4.247962 -0.688699,-0.112804 -0.339896,-0.608548 0,-0.605579 -0.09203,-1.122103 -2.055705,-0.374035 -2.429739,-1.214128 -0.610032,-7.419833 9.162356,-9.141579 8.498897,-2.428255 z m 46.139806,75.885947 c -1.52137,-4.665051 1.83752,-6.523348 3.6409,-10.320089 1.79448,1.441217 -0.73025,3.673551 -0.60558,5.462085 -0.65456,1.125073 -1.47239,2.092814 -1.79447,3.556294 -0.0238,0.0312 -0.0431,0.0668 -0.0668,0.10093 -0.64713,0.1425 -0.91282,0.66792 -1.17405,1.20077 z M 75.663221,2.0854316 c -0.04006,0.051949 -0.05791,0.092024 -0.109843,0.148426 0.382941,0.078666 0.837124,0.083119 1.313572,0.066793 1.018209,0.1766277 2.026022,0.3755189 3.026415,0.5996421 -0.979614,0.4467639 -1.243815,1.6104259 -2.512859,1.761821 -0.440823,1.8553288 0.617453,2.213037 0.602614,3.6423824 -1.043437,0.2389662 -1.556993,-0.8994646 -1.821194,0 2.08391,2.6865169 -2.980402,5.0242309 0,7.2847649 -4.421619,2.257564 -10.651074,2.705812 -13.356887,6.677701 -1.312089,1.518402 -1.914699,3.750734 -3.642383,4.855026 -4.33108,-1.246781 -5.168205,-8.394995 -3.865021,-11.137913 0.124682,-0.09054 0.213734,-0.216703 0.216701,-0.390361 -0.07866,0.117255 -0.149909,0.247871 -0.216701,0.388876 -0.319117,0.224124 -0.884621,0.152879 -0.991488,-0.394813 2.846817,-8.0580669 -6.946354,-5.6951201 -8.500377,-10.3200846 1.012268,-0.8089229 3.865022,0.2211562 3.642382,-1.8211905 -0.08609,0.011875 -0.161784,0.034139 -0.249356,0.044529 5.28843,-1.4041129 10.84106,-2.1625717 16.570318,-2.1625717 3.366307,0 6.667313,0.2597463 9.8941,0.7569744 z M 35.490145,8.8878117 c 1.228969,0.4007502 2.247174,0.6337792 3.633476,-0.5758946 -0.792596,-0.047492 -1.738073,0.056396 -2.535121,0.013367 2.863145,-1.4575478 5.846513,-2.7072972 8.93675,-3.7299536 -2.354042,1.2185794 -3.911034,3.2342089 -5.181563,5.5348175 -2.836429,0.276073 -5.046498,0.556599 -6.838003,-0.126155 0.65753,-0.3829401 1.315057,-0.7599441 1.984461,-1.1161664 z m -2.91361,1.6490163 c 0.136545,0.292399 0.394815,0.46309 1.087966,0.197408 -0.645655,1.375911 -1.840487,2.205615 -3.642382,2.428253 0.451215,-0.593704 0.647137,-1.062731 0.748067,-1.482779 0.59816,-0.387392 1.194834,-0.776269 1.806349,-1.142882 z m -7.020566,4.905491 c 0.07272,0.05047 0.142483,0.105377 0.216703,0.149909 -0.143971,1.674251 -2.256081,1.386304 -3.033836,2.429739 4.071335,1.206708 4.239058,-3.637928 6.677702,-0.608546 0.249356,-1.460515 -1.108745,-1.319511 -0.605579,-3.032351 0.774785,-0.03265 0.840094,-0.779238 1.822675,-0.607063 0.296853,3.459818 2.264986,1.899857 3.033835,4.24796 0.129132,-0.681275 0.673855,-0.946958 1.214128,-1.212642 0.645654,-2.263502 -2.278346,-0.960319 -1.821193,-3.035318 0.0846,-3.357405 5.125163,-1.7544 7.284766,-3.03532 0.01489,1.003363 1.683154,0.339896 1.821192,1.214129 -0.797049,-0.07866 -4.391936,-0.09203 -2.428256,0.607062 6.1968,-0.486838 6.100324,4.12477 9.71302,7.28625 -1.193348,-0.182563 -1.205222,0.819314 -1.824159,1.211159 -0.805955,0.09203 -1.830098,-2.466846 -2.426771,-0.604095 1.328417,0.08905 1.304668,1.528791 1.212643,3.035319 -3.010086,-0.990004 -0.342864,0.07274 -1.822675,1.212643 -2.26647,-1.174053 -4.011965,-2.869081 -6.679186,-3.643867 1.490201,-0.531367 3.499893,-0.544724 3.643868,-2.426771 0.451215,-1.870171 -1.669797,-1.165146 -1.214129,-3.035318 -0.890558,0.0059 -4.969314,-0.228577 -3.035318,0.608548 0.498713,2.722138 -1.742526,2.710265 -2.429739,4.249446 0.890558,0.526914 1.925089,0.909854 1.822675,2.428256 -0.488323,-0.320601 -0.985551,-0.632297 -1.822675,-0.607064 -0.764397,0.151398 -0.611517,1.208189 0,1.214127 -0.109828,1.025625 -2.883924,-0.280527 -2.42974,-1.821191 -2.876502,0.964771 -4.291006,3.397478 -6.069153,5.463573 0.520976,2.312483 2.830489,2.836428 4.855025,3.642383 0.489808,0.322085 0.988519,0.633781 1.824161,0.605579 -0.439343,1.856814 0.620422,2.211553 0.605578,3.642383 2.070548,-4.880258 3.851664,-3.623087 3.643868,-11.534212 0.516523,0.109828 0.572925,-0.237481 0.605579,-0.607064 0.596674,-0.05195 1.442704,1.603005 3.643868,1.212643 1.542149,0.480903 0.328022,3.719566 2.426769,3.643868 1.965166,0.751037 0.463091,-1.96368 2.429739,-1.215612 1.901343,5.666918 5.203829,8.552326 6.070638,13.963952 -1.855328,0.439341 -2.211552,-0.620423 -3.640898,-0.605581 -2.122497,0.541757 -1.0375,-1.980008 -0.608548,-2.429739 0.872748,-0.339896 1.481295,-0.948445 1.822677,-1.822675 -2.288735,0.575894 -4.112895,3.767061 -6.070638,1.214127 0.501681,1.714325 -0.854937,1.57332 -0.607064,3.035319 -0.112805,0.516523 0.235998,0.572926 0.607064,0.607063 0.470511,0.135071 1.199284,0.01489 1.212643,0.60558 0,0.204828 0,0.40372 0,0.608548 -2.886893,1.867203 -10.415077,4.02087 -11.534213,10.927149 -1.779631,0.0386 -2.254595,1.387785 -3.033834,2.428254 -1.286856,0.541757 1.20077,4.246478 -0.608548,5.465059 -1.467937,-0.759944 -1.962196,-2.490596 -2.429739,-4.249447 -5.519976,-3.203041 -15.529848,6.918152 -6.070638,9.107441 0.203345,0 0.405204,0 0.608549,0 -0.219671,-1.925091 3.330687,-2.719171 3.639414,-0.607064 -0.899463,0.516524 -1.304668,1.525823 -1.212643,3.032349 -0.102416,1.319513 2.153666,0.279046 3.035318,0.608548 -0.17069,2.689488 -1.288341,5.015328 1.821191,5.462092 0.471997,0.136556 1.20077,0.01785 1.215613,0.608548 2.383727,-0.246386 2.593007,-2.667224 4.85651,-3.03532 1.359586,1.261624 3.919939,1.779629 7.890345,1.821195 0.851965,3.802681 5.462089,3.847209 7.890343,6.073603 0,1.009298 0,2.020081 0,3.03532 4.337019,1.128038 7.53709,3.391541 11.534212,4.853537 -0.571441,5.705514 -4.329597,8.218372 -4.246478,14.572501 -1.632689,0.80002 -3.229758,1.62972 -4.857995,2.42677 -0.562534,3.99119 -3.185228,8.81504 -6.679186,7.89035 -0.24787,1.46348 1.110231,1.31951 0.605581,3.03828 -6.21758,1.75737 -4.834246,5.53928 -5.830188,10.47742 -1.58074,-0.63526 -3.131795,-1.32545 -4.650196,-2.07797 -2.40896,-4.73331 1.620816,-13.46524 0.166237,-22.09623 -1.132493,-6.725199 -10.700055,-10.602092 -9.002057,-18.608211 1.082026,-1.319513 2.340683,-2.460911 2.999696,-4.203431 -4.368188,-6.432803 -12.944263,-8.665137 -19.20637,-13.204012 0.175143,-3.376698 -1.053827,-5.349285 -3.0011815,-6.602004 0.10093,1.700967 1.1013245,2.500985 1.2037385,4.200467 C 6.0750104,58.916396 4.5373126,52.407901 4.3577166,46.230396 8.2628148,33.965927 15.737566,23.301494 25.555969,15.442319 Z m 12.355009,49.935076 c 0.209281,2.604879 -2.211553,1.64011 -3.640898,1.214125 0.556599,-1.061246 1.895405,-1.341772 3.640898,-1.214125 z M 26.983831,62.947656 c 1.644563,-2.652379 5.790111,1.061247 7.286249,2.431223 -3.305454,0.06382 -3.796746,-2.685033 -7.286249,-2.431223 z"
     data-fill-palette-color="accent"
     id="path17"
     style="fill:#000000;stroke-width:1.48427" />
</svg>
